<?xml version="1.0" encoding="utf-8"?>
<!-- Generator: Adobe Illustrator 16.0.4, SVG Export Plug-In . SVG Version: 6.00 Build 0)  -->
<!DOCTYPE svg PUBLIC "-//W3C//DTD SVG 1.1//EN" "http://www.w3.org/Graphics/SVG/1.1/DTD/svg11.dtd">
<svg version="1.1" xmlns="http://www.w3.org/2000/svg" xmlns:xlink="http://www.w3.org/1999/xlink" x="0px" y="0px" width="56px"
	 height="72px" viewBox="0.5 12.5 56 72" enable-background="new 0.5 12.5 56 72" xml:space="preserve">
<g id="Hilfslinien">
</g>
<g id="Ebene_2">
	<path fill="#EC732C" d="M51,33.574V78.5H6v-60h29.929L51,33.574z"/>
</g>
<g id="Ebene_3">
	<path opacity="0.2" enable-background="new    " d="M50,77.5H7v-58h28.929v-1H6v60h45V33.574h-1"/>
</g>
<g id="Ebene_4">
	<path opacity="0.3" fill="#FFFFFF" enable-background="new    " d="M51,33.574H35.929V18.5L51,33.574z"/>
</g>
<g id="Ebene_5">
	<path opacity="0.3" enable-background="new    " d="M51,48.645l-15.071-15.07H51V48.645z"/>
</g>
<g id="Ebene_6">
	<g>
		<path fill="#FFFFFF" d="M16.221,45.931h1.007l0.382,1.866l0.335-1.866h0.933l-0.688,2.788h-1.036l-0.427-1.985l-0.438,1.985
			h-1.036l-0.689-2.788h0.945l0.325,1.872L16.221,45.931z"/>
		<path fill="#FFFFFF" d="M20.062,46.244c0.182-0.223,0.456-0.37,0.882-0.37c0.342,0,0.631,0.108,0.802,0.33
			c0.137,0.177,0.205,0.427,0.205,0.87v1.645h-0.871v-1.399c0-0.336-0.04-0.501-0.114-0.598c-0.08-0.103-0.205-0.143-0.347-0.143
			c-0.37,0-0.557,0.211-0.557,0.734v1.405h-0.871v-3.777h0.871V46.244z"/>
		<path fill="#FFFFFF" d="M23.391,44.941v0.699h-0.87v-0.699H23.391z M23.391,45.931v2.788h-0.87v-2.788H23.391z"/>
		<path fill="#FFFFFF" d="M24.153,45.095h0.87v0.837h0.626v0.677h-0.626v1.103c0,0.27,0.085,0.32,0.376,0.32h0.25v0.688h-0.558
			c-0.694,0-0.938-0.132-0.938-0.797v-1.314h-0.45v-0.678h0.449L24.153,45.095L24.153,45.095z"/>
		<path fill="#FFFFFF" d="M25.94,47.308c0-0.882,0.66-1.456,1.508-1.456c0.956,0,1.525,0.621,1.457,1.706h-2.088
			c0.018,0.354,0.325,0.53,0.649,0.53s0.523-0.114,0.621-0.342l0.808,0.148c-0.257,0.659-0.837,0.893-1.435,0.893
			C26.52,48.787,25.94,48.161,25.94,47.308z M26.822,46.994h1.217c-0.005-0.347-0.296-0.505-0.603-0.505
			C27.134,46.489,26.828,46.643,26.822,46.994z"/>
		<path fill="#FFFFFF" d="M31.117,46.813c-0.107-0.018-0.238-0.035-0.363-0.035c-0.268,0-0.519,0.086-0.519,0.553v1.388h-0.87
			v-2.788h0.842v0.473c0.153-0.284,0.37-0.49,0.774-0.507c0.045,0,0.091,0,0.136,0.006V46.813z"/>
		<path fill="#FFFFFF" d="M32.801,45.868c0.786,0,1.491,0.462,1.491,1.463s-0.705,1.456-1.491,1.456
			c-0.79,0-1.484-0.455-1.484-1.456S32.011,45.868,32.801,45.868z M32.801,48.088c0.348,0,0.604-0.272,0.604-0.757
			c0-0.49-0.257-0.763-0.604-0.763c-0.347,0-0.596,0.273-0.596,0.763C32.205,47.815,32.449,48.088,32.801,48.088z"/>
		<path fill="#FFFFFF" d="M36.103,45.868c0.784,0,1.489,0.462,1.489,1.463s-0.705,1.456-1.489,1.456
			c-0.791,0-1.485-0.455-1.485-1.456S35.312,45.868,36.103,45.868z M36.103,48.088c0.346,0,0.603-0.272,0.603-0.757
			c0-0.49-0.257-0.763-0.603-0.763c-0.348,0-0.598,0.273-0.598,0.763C35.505,47.815,35.749,48.088,36.103,48.088z"/>
		<path fill="#FFFFFF" d="M38.048,45.931h0.854v0.325c0.188-0.229,0.421-0.381,0.859-0.381c0.433,0,0.683,0.146,0.854,0.46
			c0.228-0.295,0.528-0.46,0.974-0.46c0.392,0,0.67,0.124,0.829,0.392c0.104,0.171,0.148,0.398,0.148,0.798v1.655h-0.87v-1.406
			c0-0.307-0.022-0.473-0.085-0.574c-0.068-0.108-0.178-0.16-0.354-0.16c-0.369,0-0.512,0.217-0.512,0.724v1.416h-0.876v-1.405
			c0-0.307-0.023-0.473-0.086-0.574c-0.068-0.108-0.177-0.16-0.352-0.16c-0.359,0-0.514,0.217-0.514,0.724v1.416h-0.87V45.931
			L38.048,45.931z"/>
	</g>
	<rect x="14.833" y="26.037" fill="none" width="12.167" height="13.463"/>
	<text transform="matrix(1 0 0 1 14.833 34.0049)" fill="#FFFFFF" font-family="'SuisseBPIntl-Black'" font-size="12">1</text>
	<g>
		<rect x="18.208" y="61.5" fill="#FFFFFF" width="7.419" height="0.8"/>
		<rect x="18.208" y="63.1" fill="#FFFFFF" width="7.419" height="0.801"/>
		<rect x="18.208" y="64.699" fill="#FFFFFF" width="7.419" height="0.801"/>
		<rect x="18.208" y="66.199" fill="#FFFFFF" width="5.483" height="0.801"/>
		<rect x="26.242" y="61.5" fill="#FFFFFF" width="12.558" height="5.5"/>
	</g>
	<g>
		<rect x="31.381" y="55" fill="#FFFFFF" width="7.42" height="0.8"/>
		<rect x="31.381" y="56.6" fill="#FFFFFF" width="7.42" height="0.801"/>
		<rect x="31.381" y="58.199" fill="#FFFFFF" width="7.42" height="0.801"/>
		<rect x="31.381" y="59.699" fill="#FFFFFF" width="5.482" height="0.801"/>
		<rect x="18.208" y="55" fill="#FFFFFF" width="12.558" height="5.5"/>
	</g>
	<path fill="#FFFFFF" d="M42.167,50.667H14.833V72.5h27.334V54.083V50.667z M40.5,69.459l-24,0.041V52.375h24V69.459z"/>
</g>
</svg>
